<?xml version="1.0" encoding="UTF-8" standalone="no"?>
<!-- Created with Inkscape (http://www.inkscape.org/) -->

<svg
   xmlns:dc="http://purl.org/dc/elements/1.1/"
   xmlns:cc="http://creativecommons.org/ns#"
   xmlns:rdf="http://www.w3.org/1999/02/22-rdf-syntax-ns#"
   xmlns:svg="http://www.w3.org/2000/svg"
   xmlns="http://www.w3.org/2000/svg"
   xmlns:sodipodi="http://sodipodi.sourceforge.net/DTD/sodipodi-0.dtd"
   xmlns:inkscape="http://www.inkscape.org/namespaces/inkscape"
   width="135.15411"
   height="51.84"
   id="svg2"
   version="1.1"
   inkscape:version="0.48.2 r9819"
   sodipodi:docname="sel4-logo.svg">
  <defs
     id="defs4">
    <clipPath
       id="clipPath3398"
       clipPathUnits="userSpaceOnUse">
      <path
         id="path3400"
         d="m 0.1027239,0.5096419 c 0.003009,-0.00597 0.006827,-0.011224 0.011461,-0.0157912 0.004634,-0.004567 0.009593,-0.009463 0.0148779,-0.0147166 0.005284,-0.005284 0.0102437,-0.0135226 0.0148779,-0.0247466 0.004634,-0.0112241 0.008452,-0.0265079 0.0114679,-0.0457917 0.003002,-0.0193137 0.00451,-0.0451051 0.00451,-0.0773742 0,-0.0329855 -0.001667,-0.0601799 -0.005001,-0.0815831 C 0.1515836,0.2282352 0.147316,0.2110409 0.1421146,0.1980557 0.1369064,0.1850704 0.1310548,0.1759658 0.1245531,0.170712 0.1180441,0.165428 0.1116257,0.162801 0.1052831,0.162801 0.0969899,0.162801 0.0886138,0.167906 0.0801615,0.1780549 0.0717093,0.1882342 0.0645505,0.206324 0.0586989,0.2322944 l 0.0221958,0.1063 C 0.0843115,0.320326 0.0880881,0.3065049 0.0922381,0.2970122 0.0963812,0.2875494 0.101216,0.2828031 0.1067494,0.2828031 c 0.004226,0 0.008044,0.002627 0.011461,0.007911 0.003417,0.005254 0.005125,0.0148958 0.005125,0.0289258 0,0.0133435 -0.001508,0.0233436 -0.004517,0.0300004 -0.003009,0.006657 -0.006827,0.0122688 -0.011461,0.0168659 C 0.1027239,0.3710431 0.0977646,0.3759685 0.0924802,0.3812223 0.0871958,0.386506 0.0822365,0.3943867 0.0776023,0.4049241 0.0729681,0.4154317 0.0691432,0.4303274 0.0661413,0.4496411 0.0631256,0.4689548 0.0616247,0.4947462 0.0616247,0.5270153 c 0,0.0301795 0.0014248,0.05615 0.0042676,0.0779115 0.0028428,0.0217316 0.0065847,0.0396124 0.0112189,0.0536723 0.0046342,0.0140301 0.0099601,0.0243586 0.0159777,0.0310452 0.0060175,0.006657 0.0121112,0.0100001 0.0182947,0.0100001 0.007802,0 0.0156872,-0.004925 0.0236552,-0.0147464 C 0.1430069,0.675077 0.1497576,0.6575543 0.1552841,0.6322704 L 0.1328462,0.5364781 C 0.1274788,0.5652546 0.12041,0.5796428 0.1116257,0.5796428 c -0.003092,0 -0.0061,-0.003164 -0.009026,-0.009463 -0.0029261,-0.006328 -0.0043855,-0.017194 -0.0043855,-0.0326271 0,-0.012627 0.0015009,-0.0219406 0.0045097,-0.0279108 z M 0.1963072,0.3817596 c 0.001466,-0.0301795 0.004634,-0.0542097 0.009511,-0.0721203 0.004883,-0.0178809 0.0108939,-0.0268362 0.0180527,-0.0268362 0.006011,0 0.0110944,0.005791 0.0152444,0.0173733 0.004143,0.0115823 0.007761,0.026478 0.0108524,0.0447469 L 0.2755798,0.2638476 C 0.2697214,0.2315785 0.2623205,0.2066528 0.2533841,0.1891302 0.2444338,0.1715777 0.2351654,0.1628015 0.2255788,0.1628015 c -0.009109,0 -0.0176861,0.006328 -0.0257371,0.0189555 C 0.1917975,0.194384 0.1848047,0.2124439 0.1788701,0.2359666 0.1729287,0.2594595 0.1682599,0.2876987 0.164843,0.320714 0.161433,0.3536697 0.159725,0.390506 0.159725,0.431223 c 0,0.0406871 0.001709,0.0775234 0.005118,0.1105387 0.003417,0.0329557 0.008086,0.0611949 0.0140271,0.0847176 0.005935,0.0235227 0.0129274,0.0415826 0.0209716,0.0542097 0.008051,0.0126569 0.0166278,0.0189554 0.0257371,0.0189554 0.008452,0 0.0161367,-0.006299 0.0230465,-0.0189554 C 0.2555352,0.6680619 0.2613867,0.650002 0.2661869,0.6264793 0.2709802,0.6029566 0.2746807,0.5747174 0.2772814,0.5417617 0.279882,0.5087464 0.2811893,0.4719101 0.2811893,0.431223 l 0,-0.0494634 -0.0848821,0 z m 0.042199,0.1757934 c -0.004233,0.0189256 -0.009677,0.0284183 -0.0163443,0.0284183 -0.004067,0 -0.007643,-0.002806 -0.0107347,-0.008418 C 0.2083423,0.5719114 0.2057001,0.5647173 0.2035006,0.5559709 0.201308,0.5471947 0.1995996,0.5370154 0.1983822,0.5254332 0.1971649,0.5138509 0.1964663,0.5017612 0.1963072,0.4891342 l 0.0482926,0 c 1.591e-4,0.0266571 -0.001867,0.0494633 -0.006094,0.0684188 z m 0.0562399,-0.3821245 0,0.7452637 0.0204873,0 0,-0.6631432 0.0790237,0 0,-0.0821205 -0.099511,0 z m 0.1843654,0.1705396 0,-0.1705396 -0.0204874,0 0,0.1705396 -0.073172,0 0,0.0978819 0.0685378,0.4768422 0.0251216,0 0,-0.4926335 0.0248795,0 0,-0.0820906 -0.0248795,0 z m -0.0204874,0.4715884 -4.911e-4,0 -0.0551194,-0.3894978 0.0556105,0 0,0.3894978 z"
         inkscape:connector-curvature="0" />
    </clipPath>
  </defs>
  <sodipodi:namedview
     id="base"
     pagecolor="#ffffff"
     bordercolor="#666666"
     borderopacity="1.0"
     inkscape:pageopacity="0.0"
     inkscape:pageshadow="2"
     inkscape:zoom="0.98994949"
     inkscape:cx="308.3715"
     inkscape:cy="-36.899166"
     inkscape:document-units="px"
     inkscape:current-layer="layer1"
     showgrid="false"
     inkscape:window-width="1035"
     inkscape:window-height="745"
     inkscape:window-x="0"
     inkscape:window-y="0"
     inkscape:window-maximized="0"
     fit-margin-top="0"
     fit-margin-left="0"
     fit-margin-right="0"
     fit-margin-bottom="0" />
  <metadata
     id="metadata7">
    <rdf:RDF>
      <cc:Work
         rdf:about="">
        <dc:format>image/svg+xml</dc:format>
        <dc:type
           rdf:resource="http://purl.org/dc/dcmitype/StillImage" />
        <dc:title />
      </cc:Work>
    </rdf:RDF>
  </metadata>
  <g
     inkscape:label="Layer 1"
     inkscape:groupmode="layer"
     id="layer1"
     transform="translate(-430.28342,-551.57808)">
    <g
       style="font-size:72.97927094px;font-style:normal;font-weight:normal;line-height:100%;letter-spacing:0px;word-spacing:0px;fill:#4e9a06;fill-opacity:1;stroke:none;font-family:Avenir;-inkscape-font-specification:Avenir"
       id="text3298">
      <path
         d="m 452.17142,577.85808 c -1.58402,-1.96798 -3.67202,-2.95198 -6.264,-2.952 -0.91202,2e-5 -1.80002,0.21602 -2.664,0.648 -0.86401,0.43202 -1.29601,1.17602 -1.296,2.232 -1e-5,0.86402 0.43199,1.51202 1.296,1.944 0.91198,0.38402 2.03998,0.74402 3.384,1.08 1.39198,0.28802 2.85598,0.62402 4.392,1.008 1.58398,0.33602 3.04797,0.88802 4.392,1.656 1.39197,0.76802 2.51997,1.82401 3.384,3.168 0.91197,1.29601 1.36797,3.04801 1.368,5.256 -3e-5,2.25601 -0.50403,4.128 -1.512,5.616 -0.96003,1.44 -2.20803,2.616 -3.744,3.528 -1.53602,0.864 -3.26402,1.464 -5.184,1.8 -1.92002,0.384 -3.81602,0.576 -5.688,0.576 -2.44801,0 -4.92001,-0.336 -7.416,-1.008 -2.49601,-0.72 -4.608,-1.968 -6.336,-3.744 l 6.552,-7.272 c 1.00799,1.24801 2.11199,2.20801 3.312,2.88 1.24799,0.624 2.68799,0.936 4.32,0.936 1.24798,0 2.37598,-0.168 3.384,-0.504 1.00798,-0.38399 1.51198,-1.05599 1.512,-2.016 -2e-5,-0.91199 -0.45602,-1.58399 -1.368,-2.016 -0.86402,-0.47999 -1.99202,-0.86399 -3.384,-1.152 -1.34401,-0.33599 -2.80801,-0.67199 -4.392,-1.008 -1.53601,-0.38399 -3.00001,-0.93599 -4.392,-1.656 -1.34401,-0.71999 -2.472,-1.72799 -3.384,-3.024 -0.864,-1.34398 -1.296,-3.11998 -1.296,-5.328 0,-2.06398 0.408,-3.83997 1.224,-5.328 0.864,-1.48797 1.96799,-2.71197 3.312,-3.672 1.39199,-0.95997 2.97599,-1.65597 4.752,-2.088 1.77599,-0.47997 3.57598,-0.71997 5.4,-0.72 2.30398,3e-5 4.63198,0.33603 6.984,1.008 2.35197,0.67203 4.34397,1.87203 5.976,3.6 l -6.624,6.552"
         style="font-weight:bold;-inkscape-font-specification:'Avenir LT 65 Medium, Bold'"
         id="path3052"
         inkscape:connector-curvature="0" />
      <path
         d="m 485.17554,581.09808 c 0.048,-1.82398 -0.55202,-3.38398 -1.8,-4.68 -1.24802,-1.29598 -2.85602,-1.94397 -4.824,-1.944 -1.20002,3e-5 -2.25601,0.19203 -3.168,0.576 -0.91201,0.38402 -1.70401,0.88802 -2.376,1.512 -0.62401,0.57602 -1.12801,1.27202 -1.512,2.088 -0.33601,0.76802 -0.52801,1.58402 -0.576,2.448 l 14.256,0 m 9.144,15.408 c -1.72803,2.208 -3.91203,3.912 -6.552,5.112 -2.64002,1.2 -5.37602,1.8 -8.208,1.8 -2.68801,0 -5.23201,-0.432 -7.632,-1.296 -2.35201,-0.864 -4.41601,-2.088 -6.192,-3.672 -1.728,-1.632 -3.096,-3.576 -4.104,-5.832 -1.008,-2.25599 -1.512,-4.77599 -1.512,-7.56 0,-2.78398 0.504,-5.30398 1.512,-7.56 1.008,-2.25598 2.376,-4.17597 4.104,-5.76 1.77599,-1.63197 3.83999,-2.87997 6.192,-3.744 2.39999,-0.86397 4.94399,-1.29597 7.632,-1.296 2.49598,3e-5 4.75198,0.43203 6.768,1.296 2.06397,0.86403 3.79197,2.11203 5.184,3.744 1.43997,1.58403 2.54397,3.50402 3.312,5.76 0.76797,2.25602 1.15197,4.77602 1.152,7.56 l 0,3.384 -25.056,0 c 0.43199,2.06401 1.36799,3.72001 2.808,4.968 1.43999,1.20001 3.21599,1.8 5.328,1.8 1.77598,0 3.26398,-0.384 4.464,-1.152 1.24798,-0.81599 2.32798,-1.84799 3.24,-3.096 l 7.56,5.544"
         style="font-weight:bold;-inkscape-font-specification:'Avenir LT 65 Medium, Bold'"
         id="path3054"
         inkscape:connector-curvature="0" />
      <path
         d="m 500.77929,551.57808 6.912,0 0,44.496 23.4,0 0,6.48 -30.312,0 0,-50.976"
         style="font-size:72px;font-variant:normal;font-stretch:normal;text-align:start;line-height:100%;letter-spacing:-4.5px;writing-mode:lr-tb;text-anchor:start;fill:#4e9a06;font-family:Avenir LT 65 Medium;-inkscape-font-specification:'Avenir LT 65 Medium,'"
         id="path3056"
         inkscape:connector-curvature="0" />
      <path
         d="m 551.32554,559.78608 -0.144,0 -15.552,25.488 15.696,0 0,-25.488 m 0,31.536 -21.744,0 0,-7.056 20.304,-32.688 8.352,0 0,33.696 7.2,0 0,6.048 -7.2,0 0,11.232 -6.912,0 0,-11.232"
         style="font-size:72px;font-variant:normal;font-stretch:normal;text-align:start;line-height:100%;letter-spacing:-4.5px;writing-mode:lr-tb;text-anchor:start;fill:#4e9a06;font-family:Avenir LT 65 Medium;-inkscape-font-specification:'Avenir LT 65 Medium,'"
         id="path3058"
         inkscape:connector-curvature="0" />
    </g>
  </g>
</svg>
