<?xml version="1.0" encoding="UTF-8" standalone="no"?>
<svg
   xmlns:dc="http://purl.org/dc/elements/1.1/"
   xmlns:cc="http://creativecommons.org/ns#"
   xmlns:rdf="http://www.w3.org/1999/02/22-rdf-syntax-ns#"
   xmlns:svg="http://www.w3.org/2000/svg"
   xmlns="http://www.w3.org/2000/svg"
   xmlns:xlink="http://www.w3.org/1999/xlink"
   xmlns:sodipodi="http://sodipodi.sourceforge.net/DTD/sodipodi-0.dtd"
   xmlns:inkscape="http://www.inkscape.org/namespaces/inkscape"
   width="420"
   height="250"
   viewBox="0 0 420 250"
   id="svg2"
   version="1.1"
   inkscape:version="0.48.4 r9939"
   sodipodi:docname="tls_times.svg">
  <sodipodi:namedview
     pagecolor="#ffffff"
     bordercolor="#666666"
     borderopacity="1"
     objecttolerance="10"
     gridtolerance="10"
     guidetolerance="10"
     inkscape:pageopacity="0"
     inkscape:pageshadow="2"
     inkscape:window-width="1366"
     inkscape:window-height="741"
     id="namedview359"
     showgrid="false"
     inkscape:zoom="0.82619048"
     inkscape:cx="210"
     inkscape:cy="125"
     inkscape:window-x="-1"
     inkscape:window-y="-12"
     inkscape:window-maximized="1"
     inkscape:current-layer="svg2" />
  <metadata
     id="metadata363">
    <rdf:RDF>
      <cc:Work
         rdf:about="">
        <dc:format>image/svg+xml</dc:format>
        <dc:type
           rdf:resource="http://purl.org/dc/dcmitype/StillImage" />
      </cc:Work>
    </rdf:RDF>
  </metadata>
  <defs
     id="defs361" />
  <title
     id="title4">Gnuplot</title>
  <desc
     id="desc6">Produced by GNUPLOT 4.6 patchlevel 5 </desc>
  <g
     id="gnuplot_canvas">
    <rect
       id="rect9"
       fill="none"
       height="250"
       width="420"
       y="0"
       x="0" />
    <defs
       id="defs11">
      <circle
         stroke-width="0.5"
         r="0.5"
         id="gpDot" />
      <path
         d="M-1,0 h2 M0,-1 v2"
         stroke="currentColor"
         stroke-width="0.222"
         id="gpPt0" />
      <path
         d="M-1,-1 L1,1 M1,-1 L-1,1"
         stroke="currentColor"
         stroke-width="0.222"
         id="gpPt1" />
      <path
         d="M-1,0 L1,0 M0,-1 L0,1 M-1,-1 L1,1 M-1,1 L1,-1"
         stroke="currentColor"
         stroke-width="0.222"
         id="gpPt2" />
      <rect
         height="2"
         width="2"
         y="-1"
         x="-1"
         stroke="currentColor"
         stroke-width="0.222"
         id="gpPt3" />
      <rect
         height="2"
         width="2"
         y="-1"
         x="-1"
         fill="currentColor"
         stroke="currentColor"
         stroke-width="0.222"
         id="gpPt4" />
      <circle
         r="1"
         cy="0"
         cx="0"
         stroke="currentColor"
         stroke-width="0.222"
         id="gpPt5" />
      <use
         stroke="none"
         fill="currentColor"
         id="gpPt6"
         xlink:href="#gpPt5" />
      <path
         d="M0,-1.33 L-1.33,0.67 L1.33,0.67 z"
         stroke="currentColor"
         stroke-width="0.222"
         id="gpPt7" />
      <use
         stroke="none"
         fill="currentColor"
         id="gpPt8"
         xlink:href="#gpPt7" />
      <use
         transform="rotate(180)"
         stroke="currentColor"
         id="gpPt9"
         xlink:href="#gpPt7" />
      <use
         stroke="none"
         fill="currentColor"
         id="gpPt10"
         xlink:href="#gpPt9" />
      <use
         transform="rotate(45)"
         stroke="currentColor"
         id="gpPt11"
         xlink:href="#gpPt3" />
      <use
         stroke="none"
         fill="currentColor"
         id="gpPt12"
         xlink:href="#gpPt11" />
    </defs>
    <g
       id="g27"
       style="fill:none; color:white; stroke:currentColor; stroke-width:1.00; stroke-linecap:butt; stroke-linejoin:miter" />
    <g
       id="g29"
       style="fill:none; color:black; stroke:currentColor; stroke-width:1.00; stroke-linecap:butt; stroke-linejoin:miter">
      <path
         id="path31"
         d="M63.6,192.4 L72.6,192.4 M377.9,192.4 L368.9,192.4  "
         stroke="black" />
      <g
         id="g33"
         style="stroke:none; fill:black; font-family:Arial; font-size:12.00pt; text-anchor:end"
         transform="translate(55.3,196.9)">
        <text
           id="text35">
          <tspan
             id="tspan37"> 0</tspan>
        </text>
      </g>
      <path
         id="path39"
         d="M63.6,108.7 L72.6,108.7 M377.9,108.7 L368.9,108.7  "
         stroke="black" />
      <g
         id="g41"
         style="stroke:none; fill:black; font-family:Arial; font-size:12.00pt; text-anchor:end"
         transform="translate(55.3,113.2)">
        <text
           id="text43">
          <tspan
             id="tspan45"> 0.1</tspan>
        </text>
      </g>
      <path
         id="path47"
         d="M63.6,25.1 L72.6,25.1 M377.9,25.1 L368.9,25.1  "
         stroke="black" />
      <g
         id="g49"
         style="stroke:none; fill:black; font-family:Arial; font-size:12.00pt; text-anchor:end"
         transform="translate(55.3,29.6)">
        <text
           id="text51">
          <tspan
             id="tspan53"> 0.2</tspan>
        </text>
      </g>
      <path
         id="path55"
         d="M83.9,192.4 L83.9,183.4 M83.9,25.1 L83.9,34.1  "
         stroke="black" />
      <g
         id="g57"
         style="stroke:none; fill:black; font-family:Arial; font-size:12.00pt; text-anchor:middle"
         transform="translate(83.9,214.9)">
        <text
           id="text59">
          <tspan
             id="tspan61"> 725</tspan>
        </text>
      </g>
      <path
         id="path63"
         d="M134.6,192.4 L134.6,183.4 M134.6,25.1 L134.6,34.1  "
         stroke="black" />
      <g
         id="g65"
         style="stroke:none; fill:black; font-family:Arial; font-size:12.00pt; text-anchor:middle"
         transform="translate(134.6,214.9)">
        <text
           id="text67">
          <tspan
             id="tspan69"> 750</tspan>
        </text>
      </g>
      <path
         id="path71"
         d="M185.3,192.4 L185.3,183.4 M185.3,25.1 L185.3,34.1  "
         stroke="black" />
      <g
         id="g73"
         style="stroke:none; fill:black; font-family:Arial; font-size:12.00pt; text-anchor:middle"
         transform="translate(185.3,214.9)">
        <text
           id="text75">
          <tspan
             id="tspan77"> 775</tspan>
        </text>
      </g>
      <path
         id="path79"
         d="M236.0,192.4 L236.0,183.4 M236.0,25.1 L236.0,34.1  "
         stroke="black" />
      <g
         id="g81"
         style="stroke:none; fill:black; font-family:Arial; font-size:12.00pt; text-anchor:middle"
         transform="translate(236.0,214.9)">
        <text
           id="text83">
          <tspan
             id="tspan85"> 800</tspan>
        </text>
      </g>
      <path
         id="path87"
         d="M286.7,192.4 L286.7,183.4 M286.7,25.1 L286.7,34.1  "
         stroke="black" />
      <g
         id="g89"
         style="stroke:none; fill:black; font-family:Arial; font-size:12.00pt; text-anchor:middle"
         transform="translate(286.7,214.9)">
        <text
           id="text91">
          <tspan
             id="tspan93"> 825</tspan>
        </text>
      </g>
      <path
         id="path95"
         d="M337.3,192.4 L337.3,183.4 M337.3,25.1 L337.3,34.1  "
         stroke="black" />
      <g
         id="g97"
         style="stroke:none; fill:black; font-family:Arial; font-size:12.00pt; text-anchor:middle"
         transform="translate(337.3,214.9)">
        <text
           id="text99">
          <tspan
             id="tspan101"> 850</tspan>
        </text>
      </g>
      <path
         id="path103"
         d="M63.6,25.1 L63.6,192.4 L377.9,192.4 L377.9,25.1 L63.6,25.1 Z  "
         stroke="black" />
      <g
         id="g105"
         style="stroke:none; fill:black; font-family:Arial; font-size:12.00pt; text-anchor:middle"
         transform="translate(17.6,108.8) rotate(270)">
        <text
           id="text107">
          <tspan
             id="tspan109">Probability</tspan>
        </text>
      </g>
      <g
         id="g111"
         style="stroke:none; fill:black; font-family:Arial; font-size:12.00pt; text-anchor:middle"
         transform="translate(220.7,241.9)">
        <text
           id="text113">
          <tspan
             id="tspan115">Response time (</tspan>
          <tspan
             id="tspan117"
             style="font-family:Symbol">m</tspan>
          <tspan
             id="tspan119"
             style="font-family:Arial">s)</tspan>
        </text>
      </g>
    </g>
    <g
       id="gnuplot_plot_1">
      <title
         id="title122">gnuplot_plot_1</title>
      <g
         id="g124"
         style="fill:none; color:white; stroke:black; stroke-width:2.00; stroke-linecap:butt; stroke-linejoin:miter" />
      <g
         id="g126"
         style="fill:none; color:red; stroke:currentColor; stroke-width:2.00; stroke-linecap:butt; stroke-linejoin:miter">
        <g
           id="g128"
           style="stroke:none; fill:black; font-family:Arial; font-size:12.00pt; text-anchor:end"
           transform="translate(310.8,47.6)">
          <text
             id="text130">
            <tspan
               id="tspan132">M</tspan>
            <tspan
               id="tspan134"
               dy="3.60pt"
               font-size="9.6pt">0</tspan>
            <tspan
               id="tspan136"
               dy="-3.60pt"
               font-size="12.0pt"> VL</tspan>
          </text>
        </g>
        <path
           id="path138"
           d="M319.1,43.1 L361.3,43.1 M63.6,192.4 L64.6,192.4 L66.6,192.4 L68.7,192.4 L70.7,192.4 L72.7,192.4    L74.8,192.3 L76.8,191.7 L78.8,187.7 L80.8,173.4 L82.9,146.6 L84.9,112.1 L86.9,76.2 L88.9,48.2    L91.0,45.7 L93.0,74.3 L95.0,115.4 L97.1,151.3 L99.1,173.6 L101.1,183.8 L103.1,187.4 L105.2,188.8    L107.2,190.0 L109.2,190.9 L111.3,191.5 L113.3,192.0 L115.3,192.1 L117.3,192.2 L119.4,192.3 L121.4,192.3    L123.4,192.3 L125.4,192.3 L127.5,192.3 L129.5,192.3 L131.5,192.3 L133.6,192.4 L135.6,192.4 L137.6,192.4    L139.6,192.4 L141.7,192.4 L143.7,192.4 L145.7,192.4 L147.8,192.4 L149.8,192.4 L151.8,192.4 L153.8,192.4    L155.9,192.4 L157.9,192.4 L159.9,192.4 L161.9,192.4 L164.0,192.4 L166.0,192.4 L168.0,192.4 L170.1,192.4    L172.1,192.4 L174.1,192.4 L176.1,192.4 L178.2,192.4 L180.2,192.4 L182.2,192.4 L184.3,192.4 L186.3,192.4    L188.3,192.4 L190.3,192.4 L192.4,192.4 L194.4,192.4 L196.4,192.4 L198.4,192.4 L200.5,192.4 L202.5,192.4    L204.5,192.4 L206.6,192.4 L208.6,192.4 L210.6,192.4 L212.6,192.4 L214.7,192.4 L216.7,192.4 L218.7,192.4    L220.8,192.4 L222.8,192.4 L224.8,192.4 L226.8,192.4 L228.9,192.4 L230.9,192.4 L232.9,192.4 L234.9,192.4    L237.0,192.4 L239.0,192.4 L241.0,192.4 L243.1,192.4 L245.1,192.4 L247.1,192.4 L249.1,192.4 L251.2,192.4    L253.2,192.4 L255.2,192.4 L257.2,192.4 L259.3,192.4 L261.3,192.4 L263.3,192.4 L265.4,192.4 L267.4,192.4    L269.4,192.4 L271.4,192.4 L273.5,192.4 L275.5,192.4 L277.5,192.4 L279.6,192.4 L281.6,192.4 L283.6,192.4    L285.6,192.4 L287.7,192.4 L289.7,192.4 L291.7,192.4 L293.7,192.4 L295.8,192.4 L297.8,192.4 L299.8,192.4    L301.9,192.4 L303.9,192.4 L305.9,192.4 L307.9,192.4 L310.0,192.4 L312.0,192.4 L314.0,192.4  "
           stroke="rgb( 31, 120, 180)" />
      </g>
    </g>
    <g
       id="gnuplot_plot_2">
      <title
         id="title141">gnuplot_plot_2</title>
      <g
         id="g143"
         style="fill:none; color:blue; stroke:currentColor; stroke-width:2.00; stroke-linecap:butt; stroke-linejoin:miter">
        <g
           id="g145"
           style="stroke:none; fill:black; font-family:Arial; font-size:12.00pt; text-anchor:end"
           transform="translate(310.8,65.6)">
          <text
             id="text147">
            <tspan
               id="tspan149">M</tspan>
            <tspan
               id="tspan151"
               dy="3.60pt"
               font-size="9.6pt">1</tspan>
            <tspan
               id="tspan153"
               dy="-3.60pt"
               font-size="12.0pt"> VL</tspan>
          </text>
        </g>
        <path
           id="path155"
           d="M319.1,61.1 L361.3,61.1 M63.6,192.4 L64.6,192.4 L66.6,192.4 L68.7,192.4 L70.7,192.4 L72.7,192.4    L74.8,192.4 L76.8,192.4 L78.8,192.4 L80.8,192.4 L82.9,192.4 L84.9,192.4 L86.9,192.4 L88.9,192.4    L91.0,192.4 L93.0,192.4 L95.0,192.4 L97.1,192.4 L99.1,192.3 L101.1,191.3 L103.1,184.8 L105.2,166.5    L107.2,135.8 L109.2,100.8 L111.3,65.5 L113.3,43.8 L115.3,49.6 L117.3,85.5 L119.4,125.3 L121.4,159.1    L123.4,178.6 L125.4,187.2 L127.5,190.3 L129.5,191.3 L131.5,191.6 L133.6,191.8 L135.6,191.9 L137.6,192.0    L139.6,192.0 L141.7,192.1 L143.7,192.1 L145.7,192.2 L147.8,192.2 L149.8,192.2 L151.8,192.2 L153.8,192.2    L155.9,192.3 L157.9,192.3 L159.9,192.3 L161.9,192.3 L164.0,192.3 L166.0,192.3 L168.0,192.3 L170.1,192.3    L172.1,192.3 L174.1,192.4 L176.1,192.4 L178.2,192.4 L180.2,192.4 L182.2,192.4 L184.3,192.4 L186.3,192.4    L188.3,192.4 L190.3,192.4 L192.4,192.4 L194.4,192.4 L196.4,192.4 L198.4,192.4 L200.5,192.4 L202.5,192.4    L204.5,192.4 L206.6,192.4 L208.6,192.4 L210.6,192.4 L212.6,192.4 L214.7,192.4 L216.7,192.4 L218.7,192.4    L220.8,192.4 L222.8,192.4 L224.8,192.4 L226.8,192.4 L228.9,192.4 L230.9,192.4 L232.9,192.4 L234.9,192.4    L237.0,192.4 L239.0,192.4 L241.0,192.4 L243.1,192.4 L245.1,192.4 L247.1,192.4 L249.1,192.4 L251.2,192.4    L253.2,192.4 L255.2,192.4 L257.2,192.4 L259.3,192.4 L261.3,192.4 L263.3,192.4 L265.4,192.4 L267.4,192.4    L269.4,192.4 L271.4,192.4 L273.5,192.4 L275.5,192.4 L277.5,192.4 L279.6,192.4 L281.6,192.4 L283.6,192.4    L285.6,192.4 L287.7,192.4 L289.7,192.4 L291.7,192.4 L293.7,192.4 L295.8,192.4 L297.8,192.4 L299.8,192.4    L301.9,192.4 L303.9,192.4 L305.9,192.4 L307.9,192.4 L310.0,192.4 L312.0,192.4 L314.0,192.4 L316.1,192.4    L318.1,192.4 L320.1,192.4 L322.1,192.4 L324.2,192.4 L326.2,192.4 L328.2,192.4 L330.2,192.4 L332.3,192.4    L334.3,192.4 L336.3,192.4 L338.4,192.4 L340.4,192.4 L342.4,192.4 L344.4,192.4 L346.5,192.4 L348.5,192.4    L350.5,192.4 L352.6,192.4 L354.6,192.4 L356.6,192.4 L358.6,192.4 L360.7,192.4 L362.7,192.4 L364.7,192.4    L366.7,192.4 L368.8,192.4 L370.8,192.4 L372.8,192.4 L374.9,192.4 L376.9,192.4 L377.9,192.4  "
           stroke="rgb(227,  26,  28)" />
      </g>
    </g>
    <g
       id="gnuplot_plot_3">
      <title
         id="title158">gnuplot_plot_3</title>
      <g
         id="g160"
         style="fill:none; color:red; stroke:currentColor; stroke-width:2.00; stroke-linecap:butt; stroke-linejoin:miter">
        <g
           id="g162"
           style="stroke:none; fill:black; font-family:Arial; font-size:12.00pt; text-anchor:end"
           transform="translate(310.8,83.6)">
          <text
             id="text164">
            <tspan
               id="tspan166">M</tspan>
            <tspan
               id="tspan168"
               dy="3.60pt"
               font-size="9.6pt">0</tspan>
            <tspan
               id="tspan170"
               dy="-3.60pt"
               font-size="12.0pt"> SD</tspan>
          </text>
        </g>
        <path
           id="path172"
           d="M319.1,79.1 L361.3,79.1 M63.6,192.4 L64.6,192.4 L66.6,192.4 L68.7,192.4 L70.7,192.4 L72.7,192.4    L74.8,192.4 L76.8,192.4 L78.8,192.4 L80.8,192.4 L82.9,192.4 L84.9,192.3 L86.9,192.2 L88.9,192.0    L91.0,191.9 L93.0,191.8 L95.0,191.8 L97.1,191.9 L99.1,192.0 L101.1,192.0 L103.1,192.0 L105.2,192.0    L107.2,192.0 L109.2,192.0 L111.3,192.0 L113.3,192.0 L115.3,192.0 L117.3,191.8 L119.4,191.5 L121.4,190.3    L123.4,185.8 L125.4,172.1 L127.5,148.5 L129.5,132.4 L131.5,127.2 L133.6,125.8 L135.6,109.6 L137.6,89.1    L139.6,91.0 L141.7,107.1 L143.7,130.7 L145.7,149.6 L147.8,157.0 L149.8,167.2 L151.8,178.5 L153.8,186.1    L155.9,190.3 L157.9,191.7 L159.9,192.1 L161.9,192.2 L164.0,192.2 L166.0,192.2 L168.0,192.3 L170.1,192.3    L172.1,192.3 L174.1,192.3 L176.1,192.3 L178.2,192.3 L180.2,192.3 L182.2,192.4 L184.3,192.4 L186.3,192.3    L188.3,192.4 L190.3,192.4 L192.4,192.4 L194.4,192.4 L196.4,192.4 L198.4,192.4 L200.5,192.4 L202.5,192.4    L204.5,192.4 L206.6,192.4 L208.6,192.4 L210.6,192.4 L212.6,192.4 L214.7,192.4 L216.7,192.4 L218.7,192.4    L220.8,192.4 L222.8,192.4 L224.8,192.4 L226.8,192.4 L228.9,192.4 L230.9,192.4 L232.9,192.4 L234.9,192.4    L237.0,192.4 L239.0,192.4 L241.0,192.4 L243.1,192.4 L245.1,192.4 L247.1,192.4 L249.1,192.4 L251.2,192.4    L253.2,192.4 L255.2,192.4 L257.2,192.4 L259.3,192.4 L261.3,192.4 L263.3,192.4 L265.4,192.4 L267.4,192.4    L269.4,192.4 L271.4,192.4 L273.5,192.4 L275.5,192.4 L277.5,192.4 L279.6,192.4 L281.6,192.4 L283.6,192.4    L285.6,192.4 L287.7,192.4 L289.7,192.4 L291.7,192.4 L293.7,192.4 L295.8,192.4 L297.8,192.4 L299.8,192.4    L301.9,192.4 L303.9,192.4 L305.9,192.4 L307.9,192.4 L310.0,192.4 L312.0,192.4 L314.0,192.4 L316.1,192.4    L318.1,192.4 L320.1,192.4 L322.1,192.4 L324.2,192.4 L326.2,192.4 L328.2,192.4 L330.2,192.4 L332.3,192.4    L334.3,192.4 L336.3,192.4 L338.4,192.4 L340.4,192.4 L342.4,192.4 L344.4,192.4 L346.5,192.4 L348.5,192.4    L350.5,192.4 L352.6,192.4 L354.6,192.4 L356.6,192.4 L358.6,192.4 L360.7,192.4 L362.7,192.4 L364.7,192.4    L366.7,192.4 L368.8,192.4 L370.8,192.4 L372.8,192.4 L374.9,192.4 L376.9,192.4 L377.9,192.4  "
           stroke="rgb( 51, 160,  44)" />
        <use
           id="use174"
           color="rgb( 51, 160,  44)"
           transform="translate(74.8,192.4) scale(4.50)"
           xlink:href="#gpPt6" />
        <use
           id="use176"
           color="rgb( 51, 160,  44)"
           transform="translate(95.0,191.8) scale(4.50)"
           xlink:href="#gpPt6" />
        <use
           id="use178"
           color="rgb( 51, 160,  44)"
           transform="translate(115.3,192.0) scale(4.50)"
           xlink:href="#gpPt6" />
        <use
           id="use180"
           color="rgb( 51, 160,  44)"
           transform="translate(135.6,109.6) scale(4.50)"
           xlink:href="#gpPt6" />
        <use
           id="use182"
           color="rgb( 51, 160,  44)"
           transform="translate(155.9,190.3) scale(4.50)"
           xlink:href="#gpPt6" />
        <use
           id="use184"
           color="rgb( 51, 160,  44)"
           transform="translate(176.1,192.3) scale(4.50)"
           xlink:href="#gpPt6" />
        <use
           id="use186"
           color="rgb( 51, 160,  44)"
           transform="translate(196.4,192.4) scale(4.50)"
           xlink:href="#gpPt6" />
        <use
           id="use188"
           color="rgb( 51, 160,  44)"
           transform="translate(216.7,192.4) scale(4.50)"
           xlink:href="#gpPt6" />
        <use
           id="use190"
           color="rgb( 51, 160,  44)"
           transform="translate(237.0,192.4) scale(4.50)"
           xlink:href="#gpPt6" />
        <use
           id="use192"
           color="rgb( 51, 160,  44)"
           transform="translate(257.2,192.4) scale(4.50)"
           xlink:href="#gpPt6" />
        <use
           id="use194"
           color="rgb( 51, 160,  44)"
           transform="translate(277.5,192.4) scale(4.50)"
           xlink:href="#gpPt6" />
        <use
           id="use196"
           color="rgb( 51, 160,  44)"
           transform="translate(297.8,192.4) scale(4.50)"
           xlink:href="#gpPt6" />
        <use
           id="use198"
           color="rgb( 51, 160,  44)"
           transform="translate(318.1,192.4) scale(4.50)"
           xlink:href="#gpPt6" />
        <use
           id="use200"
           color="rgb( 51, 160,  44)"
           transform="translate(338.4,192.4) scale(4.50)"
           xlink:href="#gpPt6" />
        <use
           id="use202"
           color="rgb( 51, 160,  44)"
           transform="translate(358.6,192.4) scale(4.50)"
           xlink:href="#gpPt6" />
        <use
           id="use204"
           color="rgb( 51, 160,  44)"
           transform="translate(340.2,79.1) scale(4.50)"
           xlink:href="#gpPt6" />
      </g>
    </g>
    <g
       id="gnuplot_plot_4">
      <title
         id="title207">gnuplot_plot_4</title>
      <g
         id="g209"
         style="fill:none; color:blue; stroke:currentColor; stroke-width:2.00; stroke-linecap:butt; stroke-linejoin:miter">
        <g
           id="g211"
           style="stroke:none; fill:black; font-family:Arial; font-size:12.00pt; text-anchor:end"
           transform="translate(310.8,101.6)">
          <text
             id="text213">
            <tspan
               id="tspan215">M</tspan>
            <tspan
               id="tspan217"
               dy="3.60pt"
               font-size="9.6pt">1</tspan>
            <tspan
               id="tspan219"
               dy="-3.60pt"
               font-size="12.0pt"> SD</tspan>
          </text>
        </g>
        <path
           id="path221"
           d="M319.1,97.1 L361.3,97.1 M63.6,192.4 L64.6,192.4 L66.6,192.4 L68.7,192.4 L70.7,192.4 L72.7,192.4    L74.8,192.4 L76.8,192.4 L78.8,192.4 L80.8,192.4 L82.9,192.4 L84.9,192.4 L86.9,192.4 L88.9,192.4    L91.0,192.4 L93.0,192.4 L95.0,192.4 L97.1,192.4 L99.1,192.4 L101.1,192.4 L103.1,192.4 L105.2,192.4    L107.2,192.3 L109.2,192.2 L111.3,192.0 L113.3,191.8 L115.3,191.5 L117.3,191.3 L119.4,191.0 L121.4,189.7    L123.4,184.1 L125.4,168.6 L127.5,145.3 L129.5,131.7 L131.5,127.2 L133.6,125.4 L135.6,107.7 L137.6,89.0    L139.6,92.0 L141.7,110.1 L143.7,134.2 L145.7,151.6 L147.8,158.1 L149.8,168.2 L151.8,179.3 L153.8,186.2    L155.9,190.0 L157.9,191.4 L159.9,191.8 L161.9,191.9 L164.0,191.9 L166.0,192.0 L168.0,192.1 L170.1,192.2    L172.1,192.2 L174.1,192.2 L176.1,192.2 L178.2,192.3 L180.2,192.2 L182.2,192.2 L184.3,192.2 L186.3,192.3    L188.3,192.2 L190.3,192.2 L192.4,192.3 L194.4,192.2 L196.4,192.3 L198.4,192.3 L200.5,192.3 L202.5,192.3    L204.5,192.3 L206.6,192.3 L208.6,192.4 L210.6,192.4 L212.6,192.4 L214.7,192.4 L216.7,192.4 L218.7,192.4    L220.8,192.4 L222.8,192.4 L224.8,192.4 L226.8,192.4 L228.9,192.4 L230.9,192.4 L232.9,192.4 L234.9,192.4    L237.0,192.4 L239.0,192.4 L241.0,192.4 L243.1,192.4 L245.1,192.4 L247.1,192.4 L249.1,192.4 L251.2,192.4    L253.2,192.4 L255.2,192.4 L257.2,192.4 L259.3,192.4 L261.3,192.4 L263.3,192.4 L265.4,192.4 L267.4,192.4    L269.4,192.4 L271.4,192.4 L273.5,192.4 L275.5,192.4 L277.5,192.4 L279.6,192.4 L281.6,192.4 L283.6,192.4    L285.6,192.4 L287.7,192.4 L289.7,192.4 L291.7,192.4 L293.7,192.4 L295.8,192.4 L297.8,192.4 L299.8,192.4    L301.9,192.4 L303.9,192.4 L305.9,192.4 L307.9,192.4 L310.0,192.4 L312.0,192.4 L314.0,192.4 L316.1,192.4    L318.1,192.4 L320.1,192.4 L322.1,192.4 L324.2,192.4 L326.2,192.4 L328.2,192.4 L330.2,192.4 L332.3,192.4    L334.3,192.4 L336.3,192.4 L338.4,192.4 L340.4,192.4 L342.4,192.4 L344.4,192.4 L346.5,192.4 L348.5,192.4    L350.5,192.4 L352.6,192.4 L354.6,192.4 L356.6,192.4 L358.6,192.4 L360.7,192.4 L362.7,192.4 L364.7,192.4    L366.7,192.4 L368.8,192.4 L370.8,192.4 L372.8,192.4 L374.9,192.4 L376.9,192.4 L377.9,192.4  "
           stroke="rgb(255, 127,   0)" />
        <use
           id="use223"
           color="rgb(255, 127,   0)"
           transform="translate(74.8,192.4) scale(4.50)"
           xlink:href="#gpPt6" />
        <use
           id="use225"
           color="rgb(255, 127,   0)"
           transform="translate(95.0,192.4) scale(4.50)"
           xlink:href="#gpPt6" />
        <use
           id="use227"
           color="rgb(255, 127,   0)"
           transform="translate(115.3,191.5) scale(4.50)"
           xlink:href="#gpPt6" />
        <use
           id="use229"
           color="rgb(255, 127,   0)"
           transform="translate(135.6,107.7) scale(4.50)"
           xlink:href="#gpPt6" />
        <use
           id="use231"
           color="rgb(255, 127,   0)"
           transform="translate(155.9,190.0) scale(4.50)"
           xlink:href="#gpPt6" />
        <use
           id="use233"
           color="rgb(255, 127,   0)"
           transform="translate(176.1,192.2) scale(4.50)"
           xlink:href="#gpPt6" />
        <use
           id="use235"
           color="rgb(255, 127,   0)"
           transform="translate(196.4,192.3) scale(4.50)"
           xlink:href="#gpPt6" />
        <use
           id="use237"
           color="rgb(255, 127,   0)"
           transform="translate(216.7,192.4) scale(4.50)"
           xlink:href="#gpPt6" />
        <use
           id="use239"
           color="rgb(255, 127,   0)"
           transform="translate(237.0,192.4) scale(4.50)"
           xlink:href="#gpPt6" />
        <use
           id="use241"
           color="rgb(255, 127,   0)"
           transform="translate(257.2,192.4) scale(4.50)"
           xlink:href="#gpPt6" />
        <use
           id="use243"
           color="rgb(255, 127,   0)"
           transform="translate(277.5,192.4) scale(4.50)"
           xlink:href="#gpPt6" />
        <use
           id="use245"
           color="rgb(255, 127,   0)"
           transform="translate(297.8,192.4) scale(4.50)"
           xlink:href="#gpPt6" />
        <use
           id="use247"
           color="rgb(255, 127,   0)"
           transform="translate(318.1,192.4) scale(4.50)"
           xlink:href="#gpPt6" />
        <use
           id="use249"
           color="rgb(255, 127,   0)"
           transform="translate(338.4,192.4) scale(4.50)"
           xlink:href="#gpPt6" />
        <use
           id="use251"
           color="rgb(255, 127,   0)"
           transform="translate(358.6,192.4) scale(4.50)"
           xlink:href="#gpPt6" />
        <use
           id="use253"
           color="rgb(255, 127,   0)"
           transform="translate(340.2,97.1) scale(4.50)"
           xlink:href="#gpPt6" />
      </g>
    </g>
    <g
       id="gnuplot_plot_5">
      <title
         id="title256">gnuplot_plot_5</title>
      <g
         id="g258"
         style="fill:none; color:red; stroke:currentColor; stroke-width:2.00; stroke-linecap:butt; stroke-linejoin:miter">
        <g
           id="g260"
           style="stroke:none; fill:black; font-family:Arial; font-size:12.00pt; text-anchor:end"
           transform="translate(310.8,119.6)">
          <text
             id="text262">
            <tspan
               id="tspan264">M</tspan>
            <tspan
               id="tspan266"
               dy="3.60pt"
               font-size="9.6pt">0</tspan>
            <tspan
               id="tspan268"
               dy="-3.60pt"
               font-size="12.0pt"> CT</tspan>
          </text>
        </g>
        <path
           id="path270"
           d="M319.1,115.1 L361.3,115.1 M63.6,192.4 L64.6,192.4 L66.6,192.4 L68.7,192.4 L70.7,192.4 L72.7,192.4    L74.8,192.4 L76.8,192.4 L78.8,192.4 L80.8,192.4 L82.9,192.4 L84.9,192.4 L86.9,192.4 L88.9,192.4    L91.0,192.4 L93.0,192.4 L95.0,192.4 L97.1,192.4 L99.1,192.4 L101.1,192.4 L103.1,192.4 L105.2,192.4    L107.2,192.4 L109.2,192.4 L111.3,192.4 L113.3,192.4 L115.3,192.4 L117.3,192.4 L119.4,192.4 L121.4,192.4    L123.4,192.4 L125.4,192.4 L127.5,192.4 L129.5,192.4 L131.5,192.4 L133.6,192.4 L135.6,192.4 L137.6,192.4    L139.6,192.4 L141.7,192.4 L143.7,192.4 L145.7,192.4 L147.8,192.4 L149.8,192.4 L151.8,192.4 L153.8,192.4    L155.9,192.4 L157.9,192.4 L159.9,192.4 L161.9,192.4 L164.0,192.4 L166.0,192.4 L168.0,192.4 L170.1,192.4    L172.1,192.4 L174.1,192.4 L176.1,192.4 L178.2,192.4 L180.2,192.4 L182.2,192.4 L184.3,192.4 L186.3,192.4    L188.3,192.4 L190.3,192.4 L192.4,192.4 L194.4,192.4 L196.4,192.4 L198.4,192.4 L200.5,192.4 L202.5,192.4    L204.5,192.4 L206.6,192.4 L208.6,192.2 L210.6,190.6 L212.6,185.2 L214.7,174.7 L216.7,160.6 L218.7,147.3    L220.8,135.3 L222.8,128.3 L224.8,127.2 L226.8,124.8 L228.9,116.1 L230.9,105.8 L232.9,97.4 L234.9,107.6    L237.0,131.8 L239.0,156.5 L241.0,173.8 L243.1,183.3 L245.1,187.9 L247.1,190.2 L249.1,191.3 L251.2,191.8    L253.2,192.0 L255.2,192.1 L257.2,192.1 L259.3,192.2 L261.3,192.2 L263.3,192.2 L265.4,192.2 L267.4,192.2    L269.4,192.2 L271.4,192.3 L273.5,192.3 L275.5,192.3 L277.5,192.3 L279.6,192.3 L281.6,192.3 L283.6,192.3    L285.6,192.4 L287.7,192.4 L289.7,192.4 L291.7,192.4 L293.7,192.4 L295.8,192.4 L297.8,192.4 L299.8,192.4    L301.9,192.4 L303.9,192.4 L305.9,192.4 L307.9,192.4 L310.0,192.4 L312.0,192.4 L314.0,192.4 L316.1,192.4    L318.1,192.4 L320.1,192.4 L322.1,192.4 L324.2,192.4 L326.2,192.4 L328.2,192.4 L330.2,192.4 L332.3,192.4    L334.3,192.4 L336.3,192.4 L338.4,192.4 L340.4,192.4 L342.4,192.4 L344.4,192.4 L346.5,192.4 L348.5,192.4    L350.5,192.4 L352.6,192.4 L354.6,192.4 L356.6,192.4 L358.6,192.4 L360.7,192.4 L362.7,192.4 L364.7,192.4    L366.7,192.4 L368.8,192.4 L370.8,192.4 L372.8,192.4 L374.9,192.4 L376.9,192.4 L377.9,192.4  "
           stroke="rgb( 31, 120, 180)" />
        <use
           id="use272"
           color="rgb( 31, 120, 180)"
           transform="translate(74.8,192.4) scale(4.50)"
           xlink:href="#gpPt4" />
        <use
           id="use274"
           color="rgb( 31, 120, 180)"
           transform="translate(95.0,192.4) scale(4.50)"
           xlink:href="#gpPt4" />
        <use
           id="use276"
           color="rgb( 31, 120, 180)"
           transform="translate(115.3,192.4) scale(4.50)"
           xlink:href="#gpPt4" />
        <use
           id="use278"
           color="rgb( 31, 120, 180)"
           transform="translate(135.6,192.4) scale(4.50)"
           xlink:href="#gpPt4" />
        <use
           id="use280"
           color="rgb( 31, 120, 180)"
           transform="translate(155.9,192.4) scale(4.50)"
           xlink:href="#gpPt4" />
        <use
           id="use282"
           color="rgb( 31, 120, 180)"
           transform="translate(176.1,192.4) scale(4.50)"
           xlink:href="#gpPt4" />
        <use
           id="use284"
           color="rgb( 31, 120, 180)"
           transform="translate(196.4,192.4) scale(4.50)"
           xlink:href="#gpPt4" />
        <use
           id="use286"
           color="rgb( 31, 120, 180)"
           transform="translate(216.7,160.6) scale(4.50)"
           xlink:href="#gpPt4" />
        <use
           id="use288"
           color="rgb( 31, 120, 180)"
           transform="translate(237.0,131.8) scale(4.50)"
           xlink:href="#gpPt4" />
        <use
           id="use290"
           color="rgb( 31, 120, 180)"
           transform="translate(257.2,192.1) scale(4.50)"
           xlink:href="#gpPt4" />
        <use
           id="use292"
           color="rgb( 31, 120, 180)"
           transform="translate(277.5,192.3) scale(4.50)"
           xlink:href="#gpPt4" />
        <use
           id="use294"
           color="rgb( 31, 120, 180)"
           transform="translate(297.8,192.4) scale(4.50)"
           xlink:href="#gpPt4" />
        <use
           id="use296"
           color="rgb( 31, 120, 180)"
           transform="translate(318.1,192.4) scale(4.50)"
           xlink:href="#gpPt4" />
        <use
           id="use298"
           color="rgb( 31, 120, 180)"
           transform="translate(338.4,192.4) scale(4.50)"
           xlink:href="#gpPt4" />
        <use
           id="use300"
           color="rgb( 31, 120, 180)"
           transform="translate(358.6,192.4) scale(4.50)"
           xlink:href="#gpPt4" />
        <use
           id="use302"
           color="rgb( 31, 120, 180)"
           transform="translate(340.2,115.1) scale(4.50)"
           xlink:href="#gpPt4" />
      </g>
    </g>
    <g
       id="gnuplot_plot_6">
      <title
         id="title305">gnuplot_plot_6</title>
      <g
         id="g307"
         style="fill:none; color:blue; stroke:currentColor; stroke-width:2.00; stroke-linecap:butt; stroke-linejoin:miter">
        <g
           id="g309"
           style="stroke:none; fill:black; font-family:Arial; font-size:12.00pt; text-anchor:end"
           transform="translate(310.8,137.6)">
          <text
             id="text311">
            <tspan
               id="tspan313">M</tspan>
            <tspan
               id="tspan315"
               dy="3.60pt"
               font-size="9.6pt">1</tspan>
            <tspan
               id="tspan317"
               dy="-3.60pt"
               font-size="12.0pt"> CT</tspan>
          </text>
        </g>
        <path
           id="path319"
           d="M319.1,133.1 L361.3,133.1 M63.6,192.4 L64.6,192.4 L66.6,192.4 L68.7,192.4 L70.7,192.4 L72.7,192.4    L74.8,192.4 L76.8,192.4 L78.8,192.4 L80.8,192.4 L82.9,192.4 L84.9,192.4 L86.9,192.4 L88.9,192.4    L91.0,192.4 L93.0,192.4 L95.0,192.4 L97.1,192.4 L99.1,192.4 L101.1,192.4 L103.1,192.4 L105.2,192.4    L107.2,192.4 L109.2,192.4 L111.3,192.4 L113.3,192.4 L115.3,192.4 L117.3,192.4 L119.4,192.4 L121.4,192.4    L123.4,192.4 L125.4,192.4 L127.5,192.4 L129.5,192.4 L131.5,192.4 L133.6,192.4 L135.6,192.4 L137.6,192.4    L139.6,192.4 L141.7,192.4 L143.7,192.4 L145.7,192.4 L147.8,192.4 L149.8,192.4 L151.8,192.4 L153.8,192.4    L155.9,192.4 L157.9,192.4 L159.9,192.4 L161.9,192.4 L164.0,192.4 L166.0,192.4 L168.0,192.4 L170.1,192.4    L172.1,192.4 L174.1,192.4 L176.1,192.4 L178.2,192.4 L180.2,192.4 L182.2,192.4 L184.3,192.4 L186.3,192.4    L188.3,192.4 L190.3,192.4 L192.4,192.4 L194.4,192.4 L196.4,192.4 L198.4,192.4 L200.5,192.4 L202.5,192.4    L204.5,192.4 L206.6,192.4 L208.6,192.3 L210.6,191.4 L212.6,187.8 L214.7,179.6 L216.7,166.7 L218.7,154.0    L220.8,141.0 L222.8,132.4 L224.8,129.6 L226.8,128.0 L228.9,119.3 L230.9,107.9 L232.9,95.9 L234.9,100.4    L237.0,122.9 L239.0,148.0 L241.0,168.5 L243.1,180.2 L245.1,186.4 L247.1,189.3 L249.1,190.7 L251.2,191.4    L253.2,191.7 L255.2,191.8 L257.2,191.9 L259.3,192.0 L261.3,192.0 L263.3,192.1 L265.4,192.1 L267.4,192.0    L269.4,192.1 L271.4,192.1 L273.5,192.2 L275.5,192.2 L277.5,192.2 L279.6,192.2 L281.6,192.3 L283.6,192.3    L285.6,192.3 L287.7,192.3 L289.7,192.3 L291.7,192.3 L293.7,192.3 L295.8,192.3 L297.8,192.3 L299.8,192.3    L301.9,192.3 L303.9,192.3 L305.9,192.4 L307.9,192.4 L310.0,192.4 L312.0,192.4 L314.0,192.4 L316.1,192.4    L318.1,192.4 L320.1,192.4 L322.1,192.4 L324.2,192.4 L326.2,192.4 L328.2,192.4 L330.2,192.4 L332.3,192.4    L334.3,192.4 L336.3,192.4 L338.4,192.4 L340.4,192.4 L342.4,192.4 L344.4,192.4 L346.5,192.3 L348.5,192.3    L350.5,192.3 L352.6,192.3 L354.6,192.3 L356.6,192.3 L358.6,192.3 L360.7,192.4 L362.7,192.4 L364.7,192.4    L366.7,192.4 L368.8,192.4 L370.8,192.4 L372.8,192.4 L374.9,192.4 L376.9,192.4 L377.9,192.4  "
           stroke="rgb(227,  26,  28)" />
        <use
           id="use321"
           color="rgb(227,  26,  28)"
           transform="translate(74.8,192.4) scale(4.50)"
           xlink:href="#gpPt4" />
        <use
           id="use323"
           color="rgb(227,  26,  28)"
           transform="translate(95.0,192.4) scale(4.50)"
           xlink:href="#gpPt4" />
        <use
           id="use325"
           color="rgb(227,  26,  28)"
           transform="translate(115.3,192.4) scale(4.50)"
           xlink:href="#gpPt4" />
        <use
           id="use327"
           color="rgb(227,  26,  28)"
           transform="translate(135.6,192.4) scale(4.50)"
           xlink:href="#gpPt4" />
        <use
           id="use329"
           color="rgb(227,  26,  28)"
           transform="translate(155.9,192.4) scale(4.50)"
           xlink:href="#gpPt4" />
        <use
           id="use331"
           color="rgb(227,  26,  28)"
           transform="translate(176.1,192.4) scale(4.50)"
           xlink:href="#gpPt4" />
        <use
           id="use333"
           color="rgb(227,  26,  28)"
           transform="translate(196.4,192.4) scale(4.50)"
           xlink:href="#gpPt4" />
        <use
           id="use335"
           color="rgb(227,  26,  28)"
           transform="translate(216.7,166.7) scale(4.50)"
           xlink:href="#gpPt4" />
        <use
           id="use337"
           color="rgb(227,  26,  28)"
           transform="translate(237.0,122.9) scale(4.50)"
           xlink:href="#gpPt4" />
        <use
           id="use339"
           color="rgb(227,  26,  28)"
           transform="translate(257.2,191.9) scale(4.50)"
           xlink:href="#gpPt4" />
        <use
           id="use341"
           color="rgb(227,  26,  28)"
           transform="translate(277.5,192.2) scale(4.50)"
           xlink:href="#gpPt4" />
        <use
           id="use343"
           color="rgb(227,  26,  28)"
           transform="translate(297.8,192.3) scale(4.50)"
           xlink:href="#gpPt4" />
        <use
           id="use345"
           color="rgb(227,  26,  28)"
           transform="translate(318.1,192.4) scale(4.50)"
           xlink:href="#gpPt4" />
        <use
           id="use347"
           color="rgb(227,  26,  28)"
           transform="translate(338.4,192.4) scale(4.50)"
           xlink:href="#gpPt4" />
        <use
           id="use349"
           color="rgb(227,  26,  28)"
           transform="translate(358.6,192.3) scale(4.50)"
           xlink:href="#gpPt4" />
        <use
           id="use351"
           color="rgb(227,  26,  28)"
           transform="translate(340.2,133.1) scale(4.50)"
           xlink:href="#gpPt4" />
      </g>
    </g>
    <g
       id="g353"
       style="fill:none; color:white; stroke:rgb(227,  26,  28); stroke-width:1.00; stroke-linecap:butt; stroke-linejoin:miter" />
    <g
       id="g355"
       style="fill:none; color:black; stroke:currentColor; stroke-width:1.00; stroke-linecap:butt; stroke-linejoin:miter">
      <path
         id="path357"
         d="M63.6,25.1 L63.6,192.4 L377.9,192.4 L377.9,25.1 L63.6,25.1 Z  "
         stroke="black" />
    </g>
  </g>
</svg>
